{"title":"Rugby.Union.Scrum.V.Sunday.R01.2014.09.07.x264","uid":11003604,"size":505175941,"categoryP":"video","categoryS":"tv_shows","magnet":"?xt=urn:btih:eb932a98cb8312a42ec5cc0a414a7f84ff6b1dd7&amp;dn=Rugby.Union.Scrum.V.Sunday.R01.2014.09.07.x264&amp;tr=udp%3A%2F%2Ftracker.openbittorrent.com%3A80&amp;tr=udp%3A%2F%2Fopen.demonii.com%3A1337&amp;tr=udp%3A%2F%2Ftracker.coppersurfer.tk%3A6969&amp;tr=udp%3A%2F%2Fexodus.desync.com%3A6969","seeders":1,"leechers":0,"uploader":"rugbybill","files":2,"time":1410186440,"description":"SPORT: Scrum v Sunday\nOn: BBC 2 Wales    \nDate: Sunday 7th September 2014 \nTime: 18:45 to 19:30\n\nRoss Harries presents all the best action and analysis as the new Pro 12 kicks off. Studio guests include Jonathan Davies, Gareth Thomas and Robert Jones, and Rick O'Shea meets those involved at grass-roots level to gauge opinion on the burning issues in Welsh rugby.Webrip.\n\nGeneral\nComplete name                            : 2014.09.07.Scrum.V.Sunday.webrip.x264.mp4\nFormat                                   : MPEG-4\nFormat profile                           : Base Media\nCodec ID                                 : isom\nFile size                                : 482 MiB\nDuration                                 : 44mn 58s\nOverall bit rate mode                    : Variable\nOverall bit rate                         : 1 497 Kbps\n\nVideo\nID                                       : 1\nFormat                                   : AVC\nFormat/Info                              : Advanced Video Codec\nFormat profile                           : &lt;a class=&quot;__cf_email__&quot; href=&quot;/cdn-cgi/l/email-protection&quot; data-cfemail=&quot;baf7dbd3d4faf689948b&quot;&gt;[email&amp;#160;protected]&lt;/a&gt;&lt;script cf-hash='f9e31' type=&quot;text/javascript&quot;&gt;\n/* &lt;![CDATA[ */!function(){try{var t=&quot;currentScript&quot;in document?document.currentScript:function(){for(var t=document.getElementsByTagName(&quot;script&quot;),e=t.length;e--;)if(t[e].getAttribute(&quot;cf-hash&quot;))return t[e]}();if(t&amp;&amp;t.previousSibling){var e,r,n,i,c=t.previousSibling,a=c.getAttribute(&quot;data-cfemail&quot;);if(a){for(e=&quot;&quot;,r=parseInt(a.substr(0,2),16),n=2;a.length-n;n+=2)i=parseInt(a.substr(n,2),16)^r,e+=String.fromCharCode(i);e=document.createTextNode(e),c.parentNode.replaceChild(e,c)}}}catch(u){}}();/* ]]&gt; */&lt;/script&gt;\nFormat settings, CABAC                   : Yes\nFormat settings, ReFrames                : 2 frames\nCodec ID                                 : avc1\nCodec ID/Info                            : Advanced Video Coding\nDuration                                 : 44mn 58s\nBit rate mode                            : Constant\nBit rate                                 : 1 404 Kbps\nMaximum bit rate                         : 2 179 Kbps\nWidth                                    : 832 pixels\nHeight                                   : 468 pixels\nDisplay aspect ratio                     : 16:9\nFrame rate mode                          : Constant\nFrame rate                               : 25.000 fps\nColor space                              : YUV\nChroma subsampling                       : 4:2:0\nBit depth                                : 8 bits\nScan type                                : Progressive\nBits/(Pixel*Frame)                       : 0.144\nStream size                              : 450 MiB (94%)\n\nAudio\nID                                       : 2\nFormat                                   : AAC\nFormat/Info                              : Advanced Audio Codec\nFormat profile                           : LC\nCodec ID                                 : 40\nDuration                                 : 44mn 58s\nBit rate mode                            : Variable\nBit rate                                 : 93.5 Kbps\nMaximum bit rate                         : 95.5 Kbps\nChannel(s)                               : 2 channels\nChannel positions                        : Front: L R\nSampling rate                            : 48.0 KHz\nCompression mode                         : Lossy\nStream size                              : 30.1 MiB (6%)\n\n\n","torrent":{"xt":"urn:btih:eb932a98cb8312a42ec5cc0a414a7f84ff6b1dd7","amp;dn":"Rugby.Union.Scrum.V.Sunday.R01.2014.09.07.x264","amp;tr":["udp%3A%2F%2Ftracker.openbittorrent.com%3A80","udp%3A%2F%2Fopen.demonii.com%3A1337","udp%3A%2F%2Ftracker.coppersurfer.tk%3A6969","udp%3A%2F%2Fexodus.desync.com%3A6969"],"infoHash":"eb932a98cb8312a42ec5cc0a414a7f84ff6b1dd7","infoHashBuffer":{"type":"Buffer","data":[235,147,42,152,203,131,18,164,46,197,204,10,65,74,127,132,255,107,29,215]},"announce":[],"urlList":[]}}